<svg xmlns="http://www.w3.org/2000/svg" xmlns:xlink="http://www.w3.org/1999/xlink" version="1.1" class="marks" width="403" height="261" viewBox="0 0 403 261"><rect width="403" height="261" fill="white"/><g fill="none" stroke-miterlimit="10" transform="translate(46,45)"><g class="mark-group role-frame root" role="graphics-object" aria-roledescription="group mark container"><g transform="translate(0,0)"><path class="background" aria-hidden="true" d="M0.5,0.5h350v150h-350Z" stroke="#ddd"/><g><g class="mark-group role-axis" aria-hidden="true"><g transform="translate(0.5,150.5)"><path class="background" aria-hidden="true" d="M0,0h0v0h0Z" pointer-events="none"/><g><g class="mark-rule role-axis-grid" pointer-events="none"><line transform="translate(24,-150)" x2="0" y2="150" stroke="#ddd" stroke-width="1" opacity="1"/><line transform="translate(62,-150)" x2="0" y2="150" stroke="#ddd" stroke-width="1" opacity="1"/><line transform="translate(99,-150)" x2="0" y2="150" stroke="#ddd" stroke-width="1" opacity="1"/><line transform="translate(137,-150)" x2="0" y2="150" stroke="#ddd" stroke-width="1" opacity="1"/><line transform="translate(175,-150)" x2="0" y2="150" stroke="#ddd" stroke-width="1" opacity="1"/><line transform="translate(213,-150)" x2="0" y2="150" stroke="#ddd" stroke-width="1" opacity="1"/><line transform="translate(251,-150)" x2="0" y2="150" stroke="#ddd" stroke-width="1" opacity="1"/><line transform="translate(289,-150)" x2="0" y2="150" stroke="#ddd" stroke-width="1" opacity="1"/><line transform="translate(326,-150)" x2="0" y2="150" stroke="#ddd" stroke-width="1" opacity="1"/></g></g><path class="foreground" aria-hidden="true" d="" pointer-events="none" display="none"/></g></g><g class="mark-group role-axis" aria-hidden="true"><g transform="translate(0.5,0.5)"><path class="background" aria-hidden="true" d="M0,0h0v0h0Z" pointer-events="none"/><g><g class="mark-rule role-axis-grid" pointer-events="none"><line transform="translate(0,150)" x2="350" y2="0" stroke="#ddd" stroke-width="1" opacity="1"/><line transform="translate(0,119)" x2="350" y2="0" stroke="#ddd" stroke-width="1" opacity="1"/><line transform="translate(0,87)" x2="350" y2="0" stroke="#ddd" stroke-width="1" opacity="1"/><line transform="translate(0,56)" x2="350" y2="0" stroke="#ddd" stroke-width="1" opacity="1"/><line transform="translate(0,25)" x2="350" y2="0" stroke="#ddd" stroke-width="1" opacity="1"/></g></g><path class="foreground" aria-hidden="true" d="" pointer-events="none" display="none"/></g></g><g class="mark-group role-axis" role="graphics-symbol" aria-roledescription="axis" aria-label="X-axis titled 'Year' for a time scale with values from 1998 to 2017"><g transform="translate(0.5,150.5)"><path class="background" aria-hidden="true" d="M0,0h0v0h0Z" pointer-events="none"/><g><g class="mark-rule role-axis-tick" pointer-events="none"><line transform="translate(24,0)" x2="0" y2="5" stroke="#888" stroke-width="1" opacity="1"/><line transform="translate(62,0)" x2="0" y2="5" stroke="#888" stroke-width="1" opacity="1"/><line transform="translate(99,0)" x2="0" y2="5" stroke="#888" stroke-width="1" opacity="1"/><line transform="translate(137,0)" x2="0" y2="5" stroke="#888" stroke-width="1" opacity="1"/><line transform="translate(175,0)" x2="0" y2="5" stroke="#888" stroke-width="1" opacity="1"/><line transform="translate(213,0)" x2="0" y2="5" stroke="#888" stroke-width="1" opacity="1"/><line transform="translate(251,0)" x2="0" y2="5" stroke="#888" stroke-width="1" opacity="1"/><line transform="translate(289,0)" x2="0" y2="5" stroke="#888" stroke-width="1" opacity="1"/><line transform="translate(326,0)" x2="0" y2="5" stroke="#888" stroke-width="1" opacity="1"/></g><g class="mark-text role-axis-label" pointer-events="none"><text text-anchor="middle" transform="translate(23.67390607271472,15)" font-family="sans-serif" font-size="10px" fill="#000" opacity="1">2000</text><text text-anchor="middle" transform="translate(61.53834295298702,15)" font-family="sans-serif" font-size="10px" fill="#000" opacity="1">2002</text><text text-anchor="middle" transform="translate(99.35098169799221,15)" font-family="sans-serif" font-size="10px" fill="#000" opacity="1">2004</text><text text-anchor="middle" transform="translate(137.21541857826452,15)" font-family="sans-serif" font-size="10px" fill="#000" opacity="1">2006</text><text text-anchor="middle" transform="translate(175.0280573232697,15)" font-family="sans-serif" font-size="10px" fill="#000" opacity="1">2008</text><text text-anchor="middle" transform="translate(212.89249420354201,15)" font-family="sans-serif" font-size="10px" fill="#000" opacity="1">2010</text><text text-anchor="middle" transform="translate(250.7051329485472,15)" font-family="sans-serif" font-size="10px" fill="#000" opacity="1">2012</text><text text-anchor="middle" transform="translate(288.5695698288195,15)" font-family="sans-serif" font-size="10px" fill="#000" opacity="1">2014</text><text text-anchor="middle" transform="translate(326.3822085738247,15)" font-family="sans-serif" font-size="10px" fill="#000" opacity="1">2016</text></g><g class="mark-rule role-axis-domain" pointer-events="none"><line transform="translate(0,0)" x2="350" y2="0" stroke="#888" stroke-width="1" opacity="1"/></g><g class="mark-text role-axis-title" pointer-events="none"><text text-anchor="middle" transform="translate(175,30)" font-family="sans-serif" font-size="11px" font-weight="bold" fill="#000" opacity="1">Year</text></g></g><path class="foreground" aria-hidden="true" d="" pointer-events="none" display="none"/></g></g><g class="mark-group role-axis" role="graphics-symbol" aria-roledescription="axis" aria-label="Y-axis titled 'Household debt-to-income ratio' for a linear scale with values from 0.0 to 2.4"><g transform="translate(0.5,0.5)"><path class="background" aria-hidden="true" d="M0,0h0v0h0Z" pointer-events="none"/><g><g class="mark-rule role-axis-tick" pointer-events="none"><line transform="translate(0,150)" x2="-5" y2="0" stroke="#888" stroke-width="1" opacity="1"/><line transform="translate(0,119)" x2="-5" y2="0" stroke="#888" stroke-width="1" opacity="1"/><line transform="translate(0,87)" x2="-5" y2="0" stroke="#888" stroke-width="1" opacity="1"/><line transform="translate(0,56)" x2="-5" y2="0" stroke="#888" stroke-width="1" opacity="1"/><line transform="translate(0,25)" x2="-5" y2="0" stroke="#888" stroke-width="1" opacity="1"/></g><g class="mark-text role-axis-label" pointer-events="none"><text text-anchor="end" transform="translate(-7,153)" font-family="sans-serif" font-size="10px" fill="#000" opacity="1">0.0x</text><text text-anchor="end" transform="translate(-7,121.75)" font-family="sans-serif" font-size="10px" fill="#000" opacity="1">0.5x</text><text text-anchor="end" transform="translate(-7,90.49999999999999)" font-family="sans-serif" font-size="10px" fill="#000" opacity="1">1.0x</text><text text-anchor="end" transform="translate(-7,59.25)" font-family="sans-serif" font-size="10px" fill="#000" opacity="1">1.5x</text><text text-anchor="end" transform="translate(-7,27.999999999999993)" font-family="sans-serif" font-size="10px" fill="#000" opacity="1">2.0x</text></g><g class="mark-rule role-axis-domain" pointer-events="none"><line transform="translate(0,150)" x2="0" y2="-150" stroke="#888" stroke-width="1" opacity="1"/></g><g class="mark-text role-axis-title" pointer-events="none"><text text-anchor="middle" transform="translate(-29.9013671875,75) rotate(-90) translate(0,-2)" font-family="sans-serif" font-size="11px" font-weight="bold" fill="#000" opacity="1">Household debt-to-income ratio</text></g></g><path class="foreground" aria-hidden="true" d="" pointer-events="none" display="none"/></g></g><g class="mark-group role-scope layer_0_pathgroup" role="graphics-object" aria-roledescription="group mark container"><g transform="translate(0,0)"><path class="background" aria-hidden="true" d="M0,0h350v150h-350Z"/><g><g class="mark-line role-mark layer_0_marks" role="graphics-object" aria-roledescription="line mark container"><path aria-label="Year: 1998; Household debt-to-income ratio: 0.8; variable: Financial Accounts" role="graphics-symbol" aria-roledescription="line mark" d="M0,98.125L4.768,97.5L9.429,96.875L14.141,96.875L18.906,97.5L23.674,96.875L28.388,96.25L33.099,95.625L37.864,95L42.632,93.75L47.294,93.75L52.005,91.875L56.771,91.875L61.538,91.25L66.2,90L70.912,88.75L75.677,88.125L80.445,86.875L85.106,86.25L89.818,85L94.583,84.375L99.351,83.75L104.065,82.5L108.776,81.875L113.542,80L118.309,78.75L122.971,77.5L127.682,76.875L132.448,76.875L137.215,75L141.877,74.375L146.589,73.75L151.354,73.75L156.122,73.125L160.781,72.5L165.495,72.5L170.26,73.125L175.028,75L179.74,74.375L184.453,74.375L189.219,73.75L193.986,75L198.646,75L203.359,76.25L208.125,76.875L212.892,78.75L217.552,79.375L222.266,80.625L227.031,82.5L231.799,83.125L236.458,83.75L241.172,84.375L245.938,85.625L250.705,86.875L255.417,86.875L260.13,88.75L264.896,86.25L269.663,86.875L274.323,86.875L279.037,87.5L283.802,88.125L288.57,88.75L293.229,89.375L297.943,90L302.708,90L307.476,90.625L312.136,90.625L316.849,91.25L321.615,90.625L326.382,90.625L331.094,90.625L335.807,90L340.573,90.625L345.34,90.625L350,90" stroke="maroon" stroke-width="2" opacity="0.5"/></g></g><path class="foreground" aria-hidden="true" d="" display="none"/></g><g transform="translate(0,0)"><path class="background" aria-hidden="true" d="M0,0h350v150h-350Z"/><g><g class="mark-line role-mark layer_0_marks" role="graphics-object" aria-roledescription="line mark container"><path aria-label="Year: 1998; Household debt-to-income ratio: 1.3; variable: Enhanced Financial Accounts" role="graphics-symbol" aria-roledescription="line mark" d="M0,65.708L4.768,70.445L9.429,67.451L14.141,69.65L18.906,65.811L23.674,65.458L28.388,63.608L33.099,59.367L37.864,58.197L42.632,64.412L47.294,55.2L52.005,53.429L56.771,49.431L61.538,53.864L66.2,45.542L70.912,45.17L75.677,42.166L80.445,44.194L85.106,40.393L89.818,33.704L94.583,32.987L99.351,35.004L104.065,31.195L108.776,30.972L113.542,27.539L118.309,31.312L122.971,29.764L127.682,24.234L132.448,25.447L137.215,25.018L141.877,20.747L146.589,19.548L151.354,22.091L156.122,21.604L160.781,18.577L165.495,14.681L170.26,16.508L175.028,19.207L179.74,14.684L184.453,12.947L189.219,11.353L193.986,14.082L198.646,13.091L203.359,16.104L208.125,12.995L212.892,21.45L217.552,21.437L222.266,23.609L227.031,21.665L231.799,28.238L236.458,29.838L241.172,25.746L245.938,33.398L250.705,34.551L255.417,33.918L260.13,34.213L264.896,37.774L269.663,40.837L274.323,38.083L279.037,36.26L283.802,39.966L288.57,41.628L293.229,40.477L297.943,39.496L302.708,43.133L307.476,46.21L312.136,42.564L316.849,44.937L321.615,42.204L326.382,46.809L331.094,49.085L335.807,41.199L340.573,47.757L345.34,46.805L350,44.041" stroke="darkblue" stroke-width="2" opacity="0.5"/></g></g><path class="foreground" aria-hidden="true" d="" display="none"/></g></g><g class="mark-rect role-mark layer_1_marks" role="graphics-object" aria-roledescription="rect mark container"><path aria-label="x1: Jun 01, 2007; x2: Dec 01, 2015" role="graphics-symbol" aria-roledescription="rect mark" d="M163.94109812046767,0h160.83536826007597v150h-160.83536826007597Z" fill="orange" opacity="0.1"/></g><g class="mark-group role-legend" role="graphics-symbol" aria-roledescription="legend" aria-label="Symbol legend for stroke color with 2 values: Financial Accounts, Enhanced Financial Accounts"><g transform="translate(0,200)"><path class="background" aria-hidden="true" d="M0,0h259v11h-259Z" pointer-events="none"/><g><g class="mark-group role-legend-entry"><g transform="translate(0,0)"><path class="background" aria-hidden="true" d="M0,0h0v0h0Z" pointer-events="none"/><g><g class="mark-group role-scope" role="graphics-object" aria-roledescription="group mark container"><g transform="translate(0,0)"><path class="background" aria-hidden="true" d="M0,0h99.9306640625v11h-99.9306640625Z" pointer-events="none" opacity="1"/><g><g class="mark-symbol role-legend-symbol" pointer-events="none"><path transform="translate(6,6)" d="M-5,0L5,0" stroke="maroon" stroke-width="1.5" opacity="0.5"/></g><g class="mark-text role-legend-label" pointer-events="none"><text text-anchor="start" transform="translate(16,9)" font-family="sans-serif" font-size="10px" fill="#000" opacity="1">Financial Accounts</text></g></g><path class="foreground" aria-hidden="true" d="" pointer-events="none" display="none"/></g><g transform="translate(111,0)"><path class="background" aria-hidden="true" d="M0,0h147.748046875v11h-147.748046875Z" pointer-events="none" opacity="1"/><g><g class="mark-symbol role-legend-symbol" pointer-events="none"><path transform="translate(6,6)" d="M-5,0L5,0" stroke="darkblue" stroke-width="1.5" opacity="0.5"/></g><g class="mark-text role-legend-label" pointer-events="none"><text text-anchor="start" transform="translate(16,9)" font-family="sans-serif" font-size="10px" fill="#000" opacity="1">Enhanced Financial Accounts</text></g></g><path class="foreground" aria-hidden="true" d="" pointer-events="none" display="none"/></g></g></g><path class="foreground" aria-hidden="true" d="" pointer-events="none" display="none"/></g></g></g><path class="foreground" aria-hidden="true" d="" pointer-events="none" display="none"/></g></g><g class="mark-group role-title"><g transform="translate(175,-39.109619140625)"><path class="background" aria-hidden="true" d="M0,0h0v0h0Z" pointer-events="none"/><g><g class="mark-text role-title-text" role="graphics-symbol" aria-roledescription="title" aria-label="Title text 'Household debt-to-income ratio in the US'" pointer-events="none"><text text-anchor="middle" transform="translate(0,10)" font-family="sans-serif" font-size="13px" font-weight="bold" fill="#000" opacity="1">Household debt-to-income ratio in the US</text></g><g class="mark-text role-title-subtitle" role="graphics-symbol" aria-roledescription="subtitle" aria-label="Subtitle text 'Two different data sources, same trend'" pointer-events="none"><text text-anchor="middle" transform="translate(0,25)" font-family="sans-serif" font-size="12px" fill="#000" opacity="1">Two different data sources, same trend</text></g></g><path class="foreground" aria-hidden="true" d="" pointer-events="none" display="none"/></g></g></g><path class="foreground" aria-hidden="true" d="" display="none"/></g></g></g></svg>